<?xml version="1.0" encoding="UTF-8" standalone="no"?>
<svg width="157px" height="186px" viewBox="0 0 157 186" version="1.1" xmlns="http://www.w3.org/2000/svg" xmlns:xlink="http://www.w3.org/1999/xlink" xmlns:sketch="http://www.bohemiancoding.com/sketch/ns">
    <!-- Generator: Sketch 3.5.1 (25234) - http://www.bohemiancoding.com/sketch -->
    <title>han-solo</title>
    <desc>Created with Sketch.</desc>
    <defs></defs>
    <g id="Page-1" stroke="none" stroke-width="1" fill="none" fill-rule="evenodd" sketch:type="MSPage">
        <g id="star-wars-copy" sketch:type="MSArtboardGroup" transform="translate(-1014.000000, -524.000000)">
            <g id="han-solo" sketch:type="MSLayerGroup" transform="translate(1014.000000, 524.000000)">
                <path d="M18.5512,132 L0.5512,132 L18.5512,84 L18.5512,132 Z" id="Fill-20" fill="#8C5A3C" sketch:type="MSShapeGroup"></path>
                <path d="M138.5512,132 L156.5512,132 L138.5512,84 L138.5512,132 Z" id="Fill-22" fill="#8C5A3C" sketch:type="MSShapeGroup"></path>
                <path d="M138.5512,72 L18.5512,72 C11.9212,72 6.5512,77.37 6.5512,84 L6.5512,108 C6.5512,114.63 11.9212,120 18.5512,120 L138.5512,120 C145.1812,120 150.5512,114.63 150.5512,108 L150.5512,84 C150.5512,77.37 145.1812,72 138.5512,72" id="Fill-25" fill="#F0B496" sketch:type="MSShapeGroup"></path>
                <path d="M138.5512,70.1382 C138.5512,41.3442 111.6892,17.9982 78.5512,17.9982 C45.4132,17.9982 18.5512,41.3442 18.5512,70.1382 L18.5512,147.5682 C18.5512,152.9142 20.9272,157.9782 25.0312,161.3982 L49.5472,181.8282 C52.7812,184.5222 56.8552,185.9982 61.0672,185.9982 L96.0352,185.9982 C100.2472,185.9982 104.3212,184.5222 107.5552,181.8282 L132.0712,161.3982 C136.1752,157.9782 138.5512,152.9142 138.5512,147.5682 L138.5512,70.1382 Z" id="Fill-27" fill="#F0B496" sketch:type="MSShapeGroup"></path>
                <path d="M54.5512,96 C51.2332,96 48.5512,98.682 48.5512,102 C48.5512,105.318 51.2332,108 54.5512,108 C57.8692,108 60.5512,105.318 60.5512,102 C60.5512,98.682 57.8692,96 54.5512,96" id="Fill-29" fill="#323232" sketch:type="MSShapeGroup"></path>
                <path d="M102.5512,96 C99.2332,96 96.5512,98.682 96.5512,102 C96.5512,105.318 99.2332,108 102.5512,108 C105.8692,108 108.5512,105.318 108.5512,102 C108.5512,98.682 105.8692,96 102.5512,96" id="Fill-31" fill="#323232" sketch:type="MSShapeGroup"></path>
                <path d="M72.55,123.294 L72.55,99.006 C72.55,97.35 73.894,96.006 75.55,96.006 C77.206,96.006 78.55,97.35 78.55,99.006 L78.55,123.294 C78.55,124.95 77.206,126.294 75.55,126.294 C73.894,126.294 72.55,124.95 72.55,123.294" id="Fill-33" fill="#E99977" sketch:type="MSShapeGroup"></path>
                <path d="M78.5512,18 L54.5512,0 L12.5512,36 L12.5512,54 L18.5512,126 L24.5512,66 L30.5512,54 L42.5512,72 L78.5512,48 L114.5512,72 L126.5512,54 L132.5512,66 L138.5512,126 L144.5512,54 L144.5512,36 L102.5512,0 L78.5512,18 Z" id="Fill-35" fill="#8C5A3C" sketch:type="MSShapeGroup"></path>
                <path d="M18.5512,90 L0.5512,90 L12.5512,36 L18.5512,90 Z" id="Fill-37" fill="#8C5A3C" sketch:type="MSShapeGroup"></path>
                <path d="M138.5512,90 L156.5512,90 L144.5512,36 L138.5512,90 Z" id="Fill-39" fill="#8C5A3C" sketch:type="MSShapeGroup"></path>
            </g>
        </g>
    </g>
</svg>